<svg xmlns="http://www.w3.org/2000/svg" width="200" height="118" viewBox="0 0 200 118">
    <g fill="none" fill-rule="evenodd">
        <path fill="#F0C9C8" fill-rule="nonzero" d="M100.149 58.276c-3.448 0-6.243 2.748-6.243 6.137v36.826c0 3.39 2.795 6.138 6.243 6.138h14.566l7.9 7.768c.924.908 2.504.265 2.504-1.02v-6.748h33.294c3.447 0 6.242-2.748 6.242-6.138V64.413c0-3.39-2.795-6.137-6.242-6.137h-58.264zm26.97 55.85c0 3.07-3.727 4.588-5.906 2.445l-7.317-7.194H100.15c-4.545 0-8.243-3.636-8.243-8.138V64.413c0-4.502 3.698-8.137 8.243-8.137h58.264c4.544 0 8.242 3.635 8.242 8.137v36.826c0 4.502-3.698 8.138-8.242 8.138h-31.294v4.748z"/>
        <rect width="53.448" height="3.424" x="101.724" y="78.761" fill="#E0E0E0" rx="1.712"/>
        <rect width="53.448" height="3.424" x="101.724" y="87.322" fill="#E0E0E0" rx="1.712"/>
        <rect width="43.103" height="3.424" x="112.069" y="70.2" fill="#E0E0E0" rx="1.712"/>
        <path fill="#FFF" fill-rule="nonzero" stroke="#E0001A" stroke-width="2" d="M86.583 101.496v8.435c0 2.26-2.755 3.382-4.366 1.798L71.774 101.46c-16.67-3.469-28.808-18.005-28.808-35.002 0-19.765 16.289-35.78 36.374-35.78s36.375 16.015 36.375 35.78c0 17.121-12.322 31.694-29.132 35.037z"/>
        <ellipse cx="79.637" cy="66.833" fill="#E0001A" fill-rule="nonzero" rx="27.051" ry="26.597"/>
        <path fill="#FFF" fill-rule="nonzero" d="M79.341 84.884h-.002c-1.15 0-2.082-.917-2.082-2.047v-.002-.001c0-1.13.932-2.047 2.082-2.047h.002c1.15 0 2.082.917 2.082 2.047v.002c0 1.13-.932 2.048-2.082 2.048zM79.34 76.698c-1.15 0-2.08-.916-2.08-2.046v-.611c0-2.722 1.798-5.08 4.475-5.87 3.49-1.03 5.928-4.253 5.928-7.84 0-2.128-.881-4.167-2.483-5.742-1.602-1.575-3.676-2.442-5.84-2.442-4.59 0-8.324 3.671-8.324 8.183 0 1.13-.932 2.046-2.08 2.046-1.15 0-2.082-.916-2.082-2.046 0-6.768 5.6-12.274 12.485-12.275 3.277 0 6.395 1.293 8.783 3.64 2.388 2.348 3.703 5.415 3.702 8.636 0 5.38-3.658 10.214-8.894 11.758-.903.266-1.51 1.05-1.51 1.95v.612c.001 1.131-.93 2.047-2.08 2.047z"/>
        <path fill="#E0001A" fill-rule="nonzero" d="M27.34 98.027v-1.198a.95.95 0 0 0-.952-.946.95.95 0 0 0-.953.946v1.198h-1.206a.95.95 0 0 0-.953.947.95.95 0 0 0 .953.946h1.206v1.198a.95.95 0 0 0 .953.946.95.95 0 0 0 .953-.946V99.92h1.207a.95.95 0 0 0 .952-.946.95.95 0 0 0-.952-.947H27.34zM168.72 26.97v-1.197a.95.95 0 0 0-.953-.946.95.95 0 0 0-.953.946v1.198h-1.206a.95.95 0 0 0-.953.946.95.95 0 0 0 .953.947h1.206v1.197a.95.95 0 0 0 .953.946.95.95 0 0 0 .953-.946v-1.197h1.206a.95.95 0 0 0 .954-.947.95.95 0 0 0-.954-.946h-1.206z"/>
        <path fill="#DADADA" fill-rule="nonzero" d="M186.298 98.027h1.206v-1.198a.95.95 0 0 1 .953-.946.95.95 0 0 1 .953.946v1.198h1.207a.95.95 0 0 1 .952.947.95.95 0 0 1-.952.946h-1.207v1.198a.95.95 0 0 1-.953.946.95.95 0 0 1-.953-.946V99.92h-1.206a.95.95 0 0 1-.953-.946.95.95 0 0 1 .953-.947"/>
        <path fill="#FCDE76" fill-rule="nonzero" d="M142.241 32.532a2.58 2.58 0 0 1-2.586-2.569.86.86 0 0 0-.862-.856.86.86 0 0 0-.862.856 2.58 2.58 0 0 1-2.586 2.569.86.86 0 0 0-.862.856.86.86 0 0 0 .862.856 2.58 2.58 0 0 1 2.586 2.568.86.86 0 0 0 .862.856.86.86 0 0 0 .862-.856 2.58 2.58 0 0 1 2.586-2.568.86.86 0 0 0 .862-.856.86.86 0 0 0-.862-.856zM199.138 75.337a2.58 2.58 0 0 1-2.586-2.569.86.86 0 0 0-.862-.856.86.86 0 0 0-.862.856 2.58 2.58 0 0 1-2.587 2.569.86.86 0 0 0-.862.856.86.86 0 0 0 .862.856 2.58 2.58 0 0 1 2.587 2.568.86.86 0 0 0 .862.856.86.86 0 0 0 .862-.856 2.58 2.58 0 0 1 2.586-2.568.86.86 0 0 0 .862-.856.86.86 0 0 0-.862-.856zM199.138 19.69a2.58 2.58 0 0 1-2.586-2.568.86.86 0 0 0-.862-.856.86.86 0 0 0-.862.856 2.58 2.58 0 0 1-2.587 2.568.86.86 0 0 0-.862.856.86.86 0 0 0 .862.856 2.58 2.58 0 0 1 2.587 2.569.86.86 0 0 0 .862.856.86.86 0 0 0 .862-.856 2.58 2.58 0 0 1 2.586-2.569.86.86 0 0 0 .862-.856.86.86 0 0 0-.862-.856zM15.517 75.337a2.58 2.58 0 0 1-2.586-2.569.86.86 0 0 0-.862-.856.86.86 0 0 0-.862.856 2.58 2.58 0 0 1-2.586 2.569.86.86 0 0 0-.862.856.86.86 0 0 0 .862.856 2.58 2.58 0 0 1 2.586 2.568.86.86 0 0 0 .862.856.86.86 0 0 0 .862-.856 2.58 2.58 0 0 1 2.586-2.568.86.86 0 0 0 .862-.856.86.86 0 0 0-.862-.856z"/>
        <path fill="#DADADA" fill-rule="nonzero" d="M130.603 1.568c-3.645 0-6.61 2.945-6.61 6.565 0 3.62 2.965 6.565 6.61 6.565 3.646 0 6.611-2.945 6.611-6.565 0-3.62-2.965-6.565-6.61-6.565zm0 14.698c-4.516 0-8.19-3.648-8.19-8.133 0-4.485 3.674-8.133 8.19-8.133s8.19 3.648 8.19 8.133c0 4.485-3.674 8.133-8.19 8.133z"/>
        <path fill="#DADADA" fill-rule="nonzero" d="M129.338 6.849c-.461 0-.835-.321-.835-.717 0-.23-.218-.418-.486-.418-.267 0-.485.188-.485.418 0 .396-.374.717-.835.717-.46 0-.835-.321-.835-.717 0-1.02.967-1.852 2.155-1.852 1.189 0 2.155.831 2.155 1.852 0 .396-.374.717-.834.717M127.548 10.144a2.747 2.747 0 0 0 2.624 1.97 2.748 2.748 0 0 0 2.625-1.97h-5.25zm2.624 3.554c-2.376 0-4.31-1.95-4.31-4.345 0-.437.352-.792.785-.792h7.05c.434 0 .786.355.786.792 0 2.395-1.934 4.345-4.31 4.345zM24.138 45.993c-.607 0-1.1.49-1.1 1.093 0 .602.493 1.092 1.1 1.092.606 0 1.1-.49 1.1-1.092 0-.603-.494-1.093-1.1-1.093zm0 3.66a2.58 2.58 0 0 1-2.586-2.567 2.58 2.58 0 0 1 2.586-2.569 2.58 2.58 0 0 1 2.586 2.569 2.58 2.58 0 0 1-2.586 2.568zM93.966 19.454c-.607 0-1.1.49-1.1 1.093 0 .602.493 1.092 1.1 1.092.606 0 1.1-.49 1.1-1.092 0-.603-.494-1.093-1.1-1.093zm0 3.66a2.58 2.58 0 0 1-2.587-2.567 2.58 2.58 0 0 1 2.587-2.569 2.58 2.58 0 0 1 2.586 2.569 2.58 2.58 0 0 1-2.586 2.568z"/>
        <path fill="#E0001A" fill-rule="nonzero" d="M60.344 15.172a1.099 1.099 0 0 0-1.065 1.375c.091.375.405.686.782.776.442.104.88-.045 1.15-.383.213-.27.284-.61.2-.958a1.08 1.08 0 0 0-1.067-.81zm.001 3.662c-.21 0-.423-.025-.633-.075a2.56 2.56 0 0 1-1.878-1.866 2.568 2.568 0 0 1 .478-2.217 2.621 2.621 0 0 1 2.666-.905c.919.22 1.656.951 1.877 1.865a2.577 2.577 0 0 1-2.51 3.198zM2.586 32.294a1.099 1.099 0 0 0-1.066 1.375c.092.374.405.686.782.776.442.104.881-.045 1.15-.383.213-.27.285-.61.2-.958a1.08 1.08 0 0 0-1.066-.81zm0 3.662c-.21 0-.423-.025-.633-.075a2.56 2.56 0 0 1-1.877-1.866 2.568 2.568 0 0 1 .477-2.217 2.621 2.621 0 0 1 2.666-.905c.92.22 1.656.951 1.878 1.865a2.577 2.577 0 0 1-2.51 3.198zM188.793 48.56a1.099 1.099 0 0 0-1.066 1.375c.091.374.405.686.782.776.442.104.881-.045 1.15-.383.213-.27.285-.61.2-.958a1.08 1.08 0 0 0-1.066-.81zm0 3.662c-.21 0-.423-.025-.633-.075a2.56 2.56 0 0 1-1.877-1.866 2.568 2.568 0 0 1 .477-2.217 2.621 2.621 0 0 1 2.666-.905c.919.22 1.656.951 1.878 1.865a2.577 2.577 0 0 1-2.51 3.198z"/>
        <path fill="#FCDE76" fill-rule="nonzero" d="M28.448 12.841a2.58 2.58 0 0 1-2.586-2.568.86.86 0 0 0-.862-.856.86.86 0 0 0-.862.856 2.58 2.58 0 0 1-2.586 2.568.86.86 0 0 0-.862.857.86.86 0 0 0 .862.856 2.58 2.58 0 0 1 2.586 2.568.86.86 0 0 0 .862.856.86.86 0 0 0 .862-.856 2.58 2.58 0 0 1 2.586-2.568.86.86 0 0 0 .862-.856.86.86 0 0 0-.862-.857z"/>
        <path fill="#DADADA" fill-rule="nonzero" d="M134.51 6.849c-.462 0-.835-.321-.835-.717 0-.23-.218-.418-.486-.418s-.485.188-.485.418c0 .396-.374.717-.835.717-.461 0-.835-.321-.835-.717 0-1.02.967-1.852 2.155-1.852 1.19 0 2.156.831 2.156 1.852 0 .396-.374.717-.835.717"/>
    </g>
</svg>
